<?xml version="1.0" encoding="iso-8859-1"?>
<!-- Generator: Adobe Illustrator 19.0.0, SVG Export Plug-In . SVG Version: 6.00 Build 0)  -->
<svg version="1.1" id="Layer_1" xmlns="http://www.w3.org/2000/svg" xmlns:xlink="http://www.w3.org/1999/xlink" x="0px" y="0px"
	 viewBox="0 0 512 512" style="enable-background:new 0 0 512 512;" xml:space="preserve">
<path style="fill:#A5A8A0;" d="M406.261,244.87v244.87c0,12.295-10.631,22.261-23.745,22.261H73.832
	c-13.114,0-23.745-9.966-23.745-22.261V244.87H406.261z"/>
<path style="fill:#D2D6CE;" d="M406.261,456.348H50.087c-12.295,0-22.261-9.966-22.261-22.261V55.652
	c0-12.295,9.966-22.261,22.261-22.261h356.174c12.295,0,22.261,9.966,22.261,22.261v378.435
	C428.522,446.382,418.556,456.348,406.261,456.348z"/>
<path style="fill:#A5A8A0;" d="M217.043,133.565c0,4.61-3.738,8.348-8.348,8.348H75.13c-4.61,0-8.348-3.738-8.348-8.348
	c0-4.61,3.738-8.348,8.348-8.348h133.565C213.306,125.217,217.043,128.955,217.043,133.565z M164.174,214.261H75.13
	c-4.61,0-8.348,3.738-8.348,8.348c0,4.61,3.738,8.348,8.348,8.348h89.043c4.61,0,8.348-3.738,8.348-8.348
	C172.522,217.998,168.784,214.261,164.174,214.261z M198.678,214.261h-1.113c-4.61,0-8.348,3.738-8.348,8.348
	c0,4.61,3.738,8.348,8.348,8.348h1.113c4.61,0,8.348-3.738,8.348-8.348C207.026,217.998,203.288,214.261,198.678,214.261z
	 M164.174,258.783H75.13c-4.61,0-8.348,3.738-8.348,8.348s3.738,8.348,8.348,8.348h89.043c4.61,0,8.348-3.738,8.348-8.348
	S168.784,258.783,164.174,258.783z M164.174,303.304H75.13c-4.61,0-8.348,3.738-8.348,8.348S70.52,320,75.13,320h89.043
	c4.61,0,8.348-3.738,8.348-8.348S168.784,303.304,164.174,303.304z M198.678,303.304h-1.113c-4.61,0-8.348,3.738-8.348,8.348
	s3.738,8.348,8.348,8.348h1.113c4.61,0,8.348-3.738,8.348-8.348S203.288,303.304,198.678,303.304z M164.174,347.826H75.13
	c-4.61,0-8.348,3.738-8.348,8.348s3.738,8.348,8.348,8.348h89.043c4.61,0,8.348-3.738,8.348-8.348S168.784,347.826,164.174,347.826z
	 M164.174,392.348H75.13c-4.61,0-8.348,3.738-8.348,8.348c0,4.61,3.738,8.348,8.348,8.348h89.043c4.61,0,8.348-3.738,8.348-8.348
	C172.522,396.085,168.784,392.348,164.174,392.348z M198.678,347.826h-1.113c-4.61,0-8.348,3.738-8.348,8.348
	s3.738,8.348,8.348,8.348h1.113c4.61,0,8.348-3.738,8.348-8.348S203.288,347.826,198.678,347.826z M349.496,258.783h-89.043
	c-4.61,0-8.348,3.738-8.348,8.348s3.738,8.348,8.348,8.348h89.043c4.61,0,8.348-3.738,8.348-8.348S354.106,258.783,349.496,258.783z
	 M349.496,303.304h-89.043c-4.61,0-8.348,3.738-8.348,8.348s3.738,8.348,8.348,8.348h89.043c4.61,0,8.348-3.738,8.348-8.348
	S354.106,303.304,349.496,303.304z M382.887,275.478H384c4.61,0,8.348-3.738,8.348-8.348s-3.738-8.348-8.348-8.348h-1.113
	c-4.61,0-8.348,3.738-8.348,8.348S378.277,275.478,382.887,275.478z M349.496,347.826h-89.043c-4.61,0-8.348,3.738-8.348,8.348
	s3.738,8.348,8.348,8.348h89.043c4.61,0,8.348-3.738,8.348-8.348S354.106,347.826,349.496,347.826z M349.496,392.348h-89.043
	c-4.61,0-8.348,3.738-8.348,8.348c0,4.61,3.738,8.348,8.348,8.348h89.043c4.61,0,8.348-3.738,8.348-8.348
	C357.843,396.085,354.106,392.348,349.496,392.348z M384,347.826h-1.113c-4.61,0-8.348,3.738-8.348,8.348s3.738,8.348,8.348,8.348
	H384c4.61,0,8.348-3.738,8.348-8.348S388.61,347.826,384,347.826z"/>
<path style="fill:#474747;" d="M161.391,66.783H94.609c-12.295,0-22.261-9.966-22.261-22.261V22.261C72.348,9.966,82.314,0,94.609,0
	h66.783c12.295,0,22.261,9.966,22.261,22.261v22.261C183.652,56.816,173.686,66.783,161.391,66.783z"/>
<path style="fill:#656663;" d="M150.261,33.391H83.478c-6.147,0-11.13-4.983-11.13-11.13l0,0C72.348,9.966,82.314,0,94.609,0h44.522
	c12.295,0,22.261,9.966,22.261,22.261l0,0C161.391,28.408,156.408,33.391,150.261,33.391z"/>
<path style="fill:#FF5200;" d="M372.87,0c61.471,0,111.304,49.833,111.304,111.304S434.341,222.609,372.87,222.609
	s-111.304-49.833-111.304-111.304S311.398,0,372.87,0z"/>
<path style="fill:#CC0000;" d="M372.87,22.261c49.178,0,89.043,39.866,89.043,89.043s-39.866,89.043-89.043,89.043
	s-89.043-39.866-89.043-89.043S323.692,22.261,372.87,22.261z"/>
<path style="fill:#FFFFFF;" d="M380.939,76.06c-3.161-10.542-12.681-17.625-23.688-17.625h-3.268
	c-11.007,0-20.527,7.083-23.689,17.625l-21.073,70.244c-1.325,4.417,1.181,9.07,5.596,10.395c4.417,1.328,9.07-1.181,10.395-5.596
	l8.046-26.819h44.718l8.046,26.819c1.085,3.616,4.402,5.951,7.993,5.951c0.794,0,1.602-0.115,2.402-0.354
	c4.415-1.325,6.922-5.978,5.596-10.395L380.939,76.06z M338.267,107.587l8.019-26.73c1.027-3.425,4.12-5.727,7.698-5.727h3.268
	c3.576,0,6.669,2.302,7.698,5.728l8.019,26.73h-34.702V107.587z M453.565,107.743c0,4.61-3.738,8.348-8.348,8.348h-7.012v7.012
	c0,4.61-3.738,8.348-8.348,8.348s-8.348-3.738-8.348-8.348v-7.012h-7.012c-4.61,0-8.348-3.738-8.348-8.348s3.738-8.348,8.348-8.348
	h7.012v-7.012c0-4.61,3.738-8.348,8.348-8.348s8.348,3.738,8.348,8.348v7.012h7.012C449.828,99.395,453.565,103.132,453.565,107.743
	z"/>
<g>
</g>
<g>
</g>
<g>
</g>
<g>
</g>
<g>
</g>
<g>
</g>
<g>
</g>
<g>
</g>
<g>
</g>
<g>
</g>
<g>
</g>
<g>
</g>
<g>
</g>
<g>
</g>
<g>
</g>
</svg>
