<?xml version="1.0" encoding="iso-8859-1"?>
<!-- Generator: Adobe Illustrator 19.0.0, SVG Export Plug-In . SVG Version: 6.00 Build 0)  -->
<svg version="1.1" id="Layer_1" xmlns="http://www.w3.org/2000/svg" xmlns:xlink="http://www.w3.org/1999/xlink" x="0px" y="0px"
	 viewBox="0 0 496 496" style="enable-background:new 0 0 496 496;" xml:space="preserve">
<path style="fill:#F9BA48;" d="M240,320h-56v-32.816c-2.656-1.016-5.32-2.128-7.968-3.336l-23.224,23.224l-67.88-67.88
	l23.224-23.224c-1.208-2.648-2.32-5.312-3.336-7.968H72v-96h32.816c1.016-2.656,2.128-5.32,3.336-7.968L84.928,80.808l67.88-67.88
	l23.224,23.224c2.648-1.208,5.312-2.32,7.968-3.336V0h56v96h-8c-35.288,0-64,28.712-64,64s28.712,64,64,64h8V320z"/>
<g>
	<path style="fill:#333333;" d="M424,152c0-16.032-6.936-31.256-18.832-41.832C407.056,104.304,408,98.216,408,92
		c0-32.52-26.016-59.088-58.328-59.976C337.288,12.152,315.624,0,292,0c-14.8,0-28.904,4.736-40.816,13.688l9.624,12.784
		C269.912,19.616,280.704,16,292,16c19.36,0,37,10.68,46.04,27.864l2.392,4.56l6.088-0.36C347.008,48.04,347.496,48,348,48
		c24.256,0,44,19.744,44,44c0,3.096-0.328,6.144-0.968,9.128C383.848,97.864,376.096,96,368,96c-30.872,0-56,25.128-56,56h16
		c0-22.056,17.944-40,40-40c8.56,0,16.648,2.712,23.512,7.72C401.84,127.264,408,139.264,408,152
		c0,10.384-3.984,20.224-11.216,27.728l-3.688,3.824l2.088,4.88c3.2,7.464,4.816,15.4,4.816,23.568
		c0,22.896-12.936,43.032-32.576,53.112c0.384-3.016,0.576-6.056,0.576-9.112c0-39.704-32.296-72-72-72v16c30.872,0,56,25.128,56,56
		c0,6.632-1.248,13.168-3.504,19.336C340.4,297.264,319.32,312,296,312c-12.84,0-24.944-4.264-34.992-12.328l-10.016,12.488
		C263.904,322.52,279.48,328,296,328c26.296,0,50.232-14.656,62.784-37.248l0.216,0.12c0.96-1.736,1.728-3.56,2.544-5.368
		c0.128-0.28,0.304-0.528,0.424-0.808C393.984,275.08,416,245.76,416,212c0-8.624-1.432-17.04-4.248-25.088
		C419.688,177.008,424,164.8,424,152z"/>
	<path style="fill:#333333;" d="M336,388c0-15.44-12.56-28-28-28H172c-15.44,0-28,12.56-28,28c0,10.032,5.352,18.784,13.304,23.728
		C154,416.328,152,421.92,152,428c0,10.032,5.352,18.784,13.304,23.728C162,456.328,160,461.92,160,468c0,15.44,12.56,28,28,28h104
		c15.44,0,28-12.56,28-28c0-6.08-2-11.672-5.304-16.272C322.648,446.784,328,438.032,328,428c0-6.08-2-11.672-5.304-16.272
		C330.648,406.784,336,398.032,336,388z M172,376h136c6.616,0,12,5.384,12,12s-5.384,12-12,12h-8H180h-8c-6.616,0-12-5.384-12-12
		S165.384,376,172,376z M300,440h-8H188h-8c-6.616,0-12-5.384-12-12s5.384-12,12-12h120c6.616,0,12,5.384,12,12S306.616,440,300,440
		z M292,480H188c-6.616,0-12-5.384-12-12s5.384-12,12-12h104c6.616,0,12,5.384,12,12S298.616,480,292,480z"/>
</g>
<g>
</g>
<g>
</g>
<g>
</g>
<g>
</g>
<g>
</g>
<g>
</g>
<g>
</g>
<g>
</g>
<g>
</g>
<g>
</g>
<g>
</g>
<g>
</g>
<g>
</g>
<g>
</g>
<g>
</g>
</svg>
