<?xml version="1.0" encoding="iso-8859-1"?>
<!-- Generator: Adobe Illustrator 19.0.0, SVG Export Plug-In . SVG Version: 6.00 Build 0)  -->
<svg version="1.1" id="Capa_1" xmlns="http://www.w3.org/2000/svg" xmlns:xlink="http://www.w3.org/1999/xlink" x="0px" y="0px"
	 viewBox="0 0 512 512" style="enable-background:new 0 0 512 512;" xml:space="preserve">
<path style="fill:#EBEEF7;" d="M488.727,93.091H23.273v314.182c0,6.412,5.225,11.636,11.636,11.636h442.182
	c6.412,0,11.636-5.225,11.636-11.636V93.091z"/>
<path style="fill:#AFC3D7;" d="M488.727,34.909c0-6.412-5.225-11.636-11.636-11.636H34.909c-6.412,0-11.636,5.225-11.636,11.636
	v34.909h465.455V34.909z"/>
<g>
	<path style="fill:#004463;" d="M477.091,0H34.909C15.663,0,0,15.663,0,34.909v372.364c0,19.247,15.663,34.909,34.909,34.909
		h442.182c19.247,0,34.909-15.663,34.909-34.909V34.909C512,15.663,496.337,0,477.091,0z M23.273,34.909
		c0-6.412,5.225-11.636,11.636-11.636h442.182c6.412,0,11.636,5.225,11.636,11.636v34.909H23.273V34.909z M488.727,407.273
		c0,6.412-5.225,11.636-11.636,11.636H34.909c-6.412,0-11.636-5.225-11.636-11.636V93.091h465.455V407.273z"/>
	<circle style="fill:#004463;" cx="58.182" cy="46.545" r="11.636"/>
	<circle style="fill:#004463;" cx="104.727" cy="46.545" r="11.636"/>
	<circle style="fill:#004463;" cx="151.273" cy="46.545" r="11.636"/>
	<path style="fill:#004463;" d="M325.818,325.818c-2.979,0-5.958-1.14-8.227-3.409c-4.55-4.55-4.55-11.904,0-16.454l38.319-38.319
		c3.06-3.06,4.817-7.308,4.817-11.636c0-4.329-1.757-8.576-4.817-11.636l-38.319-38.319c-4.55-4.55-4.55-11.904,0-16.454
		c4.55-4.55,11.904-4.55,16.454,0l38.319,38.319C379.869,235.415,384,245.388,384,256c0,10.612-4.131,20.596-11.636,28.09
		l-38.319,38.319C331.776,324.678,328.797,325.818,325.818,325.818z"/>
	<path style="fill:#004463;" d="M186.182,325.818c-2.979,0-5.958-1.14-8.227-3.409l-38.319-38.319
		C132.131,276.585,128,266.612,128,256c0-10.612,4.131-20.596,11.636-28.09l38.319-38.319c4.55-4.55,11.904-4.55,16.454,0
		c4.55,4.55,4.55,11.904,0,16.454l-38.319,38.319c-3.06,3.06-4.817,7.308-4.817,11.636c0,4.329,1.757,8.576,4.817,11.636
		l38.319,38.319c4.55,4.55,4.55,11.904,0,16.454C192.14,324.678,189.161,325.818,186.182,325.818z"/>
	<path style="fill:#004463;" d="M232.727,349.091c-1.059,0-2.141-0.151-3.2-0.454c-6.179-1.769-9.751-8.204-7.994-14.383
		l46.545-162.909c1.769-6.167,8.204-9.751,14.383-7.994c6.179,1.769,9.751,8.204,7.994,14.383L243.91,340.643
		C242.455,345.763,237.801,349.091,232.727,349.091z"/>
</g>
<circle style="fill:#8EC861;" cx="407.273" cy="407.273" r="81.455"/>
<path style="fill:#004463;" d="M407.273,512c-57.74,0-104.727-46.988-104.727-104.727s46.988-104.727,104.727-104.727
	S512,349.533,512,407.273S465.012,512,407.273,512z M407.273,325.818c-44.916,0-81.455,36.538-81.455,81.455
	s36.538,81.455,81.455,81.455s81.455-36.538,81.455-81.455S452.189,325.818,407.273,325.818z"/>
<path style="fill:#FFFFFF;" d="M395.636,442.182c-2.979,0-5.958-1.14-8.227-3.409L364.137,415.5c-4.55-4.55-4.55-11.904,0-16.454
	c4.55-4.55,11.904-4.55,16.454,0l15.046,15.046l38.319-38.319c4.55-4.55,11.904-4.55,16.454,0c4.55,4.55,4.55,11.904,0,16.454
	l-46.545,46.545C401.594,441.041,398.615,442.182,395.636,442.182z"/>
<g>
</g>
<g>
</g>
<g>
</g>
<g>
</g>
<g>
</g>
<g>
</g>
<g>
</g>
<g>
</g>
<g>
</g>
<g>
</g>
<g>
</g>
<g>
</g>
<g>
</g>
<g>
</g>
<g>
</g>
</svg>
