<?xml version="1.0" encoding="iso-8859-1"?>
<!-- Generator: Adobe Illustrator 19.0.0, SVG Export Plug-In . SVG Version: 6.00 Build 0)  -->
<svg version="1.1" id="Layer_1" xmlns="http://www.w3.org/2000/svg" xmlns:xlink="http://www.w3.org/1999/xlink" x="0px" y="0px"
	 viewBox="0 0 512 512" style="enable-background:new 0 0 512 512;" xml:space="preserve">
<path style="fill:#FFFFFF;" d="M504.163,135.837v240.327c0,20.198-16.374,36.571-36.571,36.571H80.98v15.673
	c0,20.198-16.374,36.571-36.571,36.571c-10.094,0-19.247-4.096-25.861-10.71c-6.614-6.614-10.71-15.768-10.71-25.861V188.082
	c0-20.198,16.374-36.571,36.571-36.571H431.02v-15.673c0-20.198,16.374-36.571,36.571-36.571c10.094,0,19.247,4.096,25.861,10.71
	C500.067,116.59,504.163,125.743,504.163,135.837z"/>
<g>
	<path style="fill:#00DDC2;" d="M80.98,188.082v240.327c0,20.198-16.374,36.571-36.571,36.571c-10.094,0-19.247-4.096-25.861-10.71
		c-6.614-6.614-10.71-15.768-10.71-25.861V188.082c0,20.198,16.374,36.571,36.571,36.571S80.98,208.28,80.98,188.082z"/>
	<path style="fill:#00DDC2;" d="M431.02,376.163V135.837c0-20.198,16.374-36.571,36.571-36.571c10.094,0,19.247,4.096,25.861,10.71
		c6.614,6.614,10.71,15.768,10.71,25.861v240.327c0-20.198-16.374-36.571-36.571-36.571
		C447.394,339.592,431.02,355.965,431.02,376.163z"/>
</g>
<rect x="240.327" y="47.02" style="fill:#FF5252;" width="31.347" height="41.796"/>
<g>
	<polygon style="fill:#00DDC2;" points="188.082,333.322 203.755,333.322 256,188.082 219.429,188.082 	"/>
	<polygon style="fill:#00DDC2;" points="323.918,333.322 308.245,333.322 256,188.082 292.571,188.082 	"/>
</g>
<circle style="fill:#FFFFFF;" cx="256" cy="151.51" r="36.571"/>
<circle style="fill:#FF5252;" cx="256" cy="151.51" r="13.061"/>
<path d="M498.995,104.434c-8.387-8.387-19.541-13.006-31.403-13.006c-24.487,0-44.408,19.921-44.408,44.408h15.673
	c0-15.845,12.891-28.735,28.735-28.735c7.677,0,14.894,2.988,20.319,8.415c5.427,5.427,8.416,12.643,8.416,20.32v206.507
	c-7.751-6.596-17.783-10.589-28.735-10.589c-24.487,0-44.408,19.921-44.408,44.408h15.673c0-15.845,12.891-28.735,28.735-28.735
	s28.735,12.89,28.735,28.735c0,15.845-12.891,28.735-28.735,28.735H101.878v15.673h365.714c24.487,0,44.408-19.921,44.408-44.408
	V135.837C512,123.973,507.382,112.821,498.995,104.434z"/>
<path d="M44.408,232.49c24.487,0,44.408-19.921,44.408-44.408H73.143c0,15.845-12.89,28.735-28.735,28.735
	s-28.735-12.89-28.735-28.735s12.89-28.735,28.735-28.735h154.122v-15.673H44.408C19.921,143.673,0,163.594,0,188.082v240.327
	c0,11.864,4.618,23.016,13.006,31.402c8.386,8.387,19.539,13.006,31.402,13.006c24.487,0,44.408-19.921,44.408-44.408H73.143
	c0,15.845-12.89,28.735-28.735,28.735c-7.677,0-14.893-2.988-20.32-8.415c-5.426-5.427-8.415-12.643-8.415-20.32V221.901
	C23.426,228.496,33.457,232.49,44.408,232.49z"/>
<path d="M256,195.918c21.812,0,39.988-15.811,43.702-36.571h110.421v-15.673H299.702c-3.258-18.215-17.65-32.607-35.865-35.865
	V96.653h15.673V39.184h-47.02v57.469h15.673v11.155c-20.76,3.714-36.571,21.89-36.571,43.702
	C211.592,175.997,231.513,195.918,256,195.918z M248.163,54.857h15.673V80.98h-15.673V54.857z M256,122.776
	c15.844,0,28.735,12.89,28.735,28.735S271.844,180.245,256,180.245c-15.845,0-28.735-12.89-28.735-28.735
	S240.155,122.776,256,122.776z"/>
<path d="M187.655,348.679l-11.083,11.082c21.898,21.898,50.663,32.847,79.427,32.847s57.529-10.949,79.428-32.847l-11.083-11.082
	C286.66,386.364,225.342,386.364,187.655,348.679z"/>
<g>
</g>
<g>
</g>
<g>
</g>
<g>
</g>
<g>
</g>
<g>
</g>
<g>
</g>
<g>
</g>
<g>
</g>
<g>
</g>
<g>
</g>
<g>
</g>
<g>
</g>
<g>
</g>
<g>
</g>
</svg>
