<?xml version="1.0" encoding="iso-8859-1"?>
<!-- Generator: Adobe Illustrator 19.0.0, SVG Export Plug-In . SVG Version: 6.00 Build 0)  -->
<svg version="1.1" id="Layer_1" xmlns="http://www.w3.org/2000/svg" xmlns:xlink="http://www.w3.org/1999/xlink" x="0px" y="0px"
	 viewBox="0 0 395.507 395.507" style="enable-background:new 0 0 395.507 395.507;" xml:space="preserve">
<path style="fill:#E1E6E9;" d="M389.672,167.434c0,46.998-38.335,85.333-85.333,85.333h-33.358
	c14.804-16.097,22.885-37.689,22.885-61.22c0-54.432-45.77-98.909-101.366-95.806c-49.455,2.457-89.665,43.895-90.893,93.35
	c-0.646,23.467,7.434,45.123,20.364,61.802c0.517,0.646,0.97,1.228,1.422,1.875H91.652c-46.998,0-85.333-38.335-85.333-85.333
	s37.689-84.687,84.687-85.333c14.222-41.438,52.558-72.339,98.263-75.442c3.103-0.646,5.56-0.646,8.663-0.646h8.663
	c15.451,1.228,30.255,5.56,43.248,12.347c12.347-7.434,26.57-12.347,42.02-12.347c42.02,0,76.024,34.004,76.024,76.671
	c0,8.663-1.228,16.679-3.685,24.113C379.781,122.311,389.672,143.968,389.672,167.434z"/>
<g>
	<path style="fill:#FFFFFF;" d="M293.866,191.547c0-54.368-45.77-98.909-101.366-95.806c-49.455,2.457-89.665,43.895-90.893,93.349
		c-0.646,23.467,7.434,45.123,20.428,61.802c16.097,20.428,25.988,45.77,25.988,72.339v41.438h98.263v-40.792
		c0-25.988,8.016-51.329,24.76-71.111C285.85,236.671,293.866,215.079,293.866,191.547z"/>
	<path style="fill:#FFFFFF;" d="M201.745,389.366h-6.788c-12.347,0-22.238-9.891-22.238-22.238v-2.457h51.329v2.457
		C223.401,379.475,213.51,389.366,201.745,389.366z"/>
</g>
<path style="fill:#334455;" d="M371.183,105.051c1.875-7.434,3.103-14.804,3.103-22.238c0-45.77-37.107-82.812-82.23-82.812
	c-14.869,0-29.673,4.331-42.667,11.766c-13.576-6.206-27.798-9.891-42.02-11.119C201.163,0,195.021,0,189.462,0.646
	C143.11,3.749,103.547,33.422,86.868,76.089c-48.291,2.974-86.626,43.184-86.626,91.345c0,50.683,40.792,91.475,91.475,91.475
	h29.026c10.537,14.869,17.325,30.319,20.428,46.998h-8.016v12.347h9.244c0,1.875,0,13.576,0,13.576h-9.891v12.347h9.891V358.4
	h-9.891v12.347h9.891h24.113c1.875,14.222,13.576,24.76,27.798,24.76h6.788c14.222,0,25.988-11.119,27.798-24.76h24.113h9.891V358.4
	h-9.891v-13.576h9.891v-12.347h-9.891c0,0,0-11.766,0-13.576h9.891v-12.347h-8.598c2.457-17.325,9.891-34.004,19.782-46.998h29.673
	c50.683,0,91.475-40.792,91.475-91.475C395.878,143.968,387.215,122.311,371.183,105.051z M201.745,383.224h-6.788
	c-7.434,0-14.222-5.56-15.451-12.347h37.689C215.385,377.665,209.179,383.224,201.745,383.224z M240.727,358.465h-85.333v-13.576
	h85.915v13.576H240.727z M240.727,332.541h-85.333c0,0,0-12.347,0-13.576h85.915C241.308,320.129,240.727,332.541,240.727,332.541z
	 M242.601,305.907h-89.083c-3.103-21.01-11.766-40.792-25.988-58.699c-12.994-16.679-19.782-37.107-19.135-58.117
	c1.228-46.352,38.335-84.687,84.687-87.143c51.911-2.457,94.578,38.335,94.578,89.665c0,21.01-7.434,41.438-21.01,57.471
	C253.72,265.115,245.058,284.897,242.601,305.907z M304.403,246.562h-20.428c10.537-16.097,16.097-35.232,16.097-55.014
	c0-58.117-48.808-105.115-107.572-102.012c-52.558,3.103-95.224,46.352-96.453,98.909c-0.646,20.428,4.913,40.792,16.097,58.117
	H91.716c-43.895,0-79.127-35.232-79.127-79.127c0-43.248,35.232-78.481,78.481-79.127h4.331l1.228-4.331
	c14.222-40.21,50.683-68.59,93.349-71.693c3.103,0,32.776,0,56.889,11.766l3.103,1.875l3.103-1.875
	c11.766-7.434,24.76-11.766,38.917-11.766c38.917,0,70.465,31.547,70.465,70.465c0,7.434-1.228,14.804-3.685,22.238l-1.228,3.685
	l2.457,2.457c15.451,14.804,23.467,35.232,23.467,56.242C383.531,211.329,348.298,246.562,304.403,246.562z"/>
<path style="fill:#FDBF5E;" d="M198.06,260.202c-37.689,0-68.008-30.319-68.008-68.008s30.319-68.008,68.008-68.008
	s68.008,30.319,68.008,68.008C266.068,229.301,235.749,260.202,198.06,260.202z"/>
<g>
	<rect x="193.147" y="62.966" style="fill:#334455;" width="12.347" height="13.576"/>
	
		<rect x="131.355" y="79.3" transform="matrix(0.5 0.866 -0.866 0.5 143.0916 -76.898)" style="fill:#334455;" width="13.575" height="12.347"/>
	
		<rect x="86.724" y="123.658" transform="matrix(0.866 0.5 -0.5 0.866 77.4463 -29.3621)" style="fill:#334455;" width="13.575" height="12.347"/>
	<rect x="69.478" y="184.178" style="fill:#334455;" width="13.576" height="12.347"/>
	<rect x="312.419" y="184.178" style="fill:#334455;" width="13.576" height="12.347"/>
	
		<rect x="296.678" y="122.447" transform="matrix(0.4999 0.8661 -0.8661 0.4999 263.3877 -197.665)" style="fill:#334455;" width="12.348" height="13.576"/>
	
		<rect x="251.356" y="78.421" transform="matrix(0.8661 0.4999 -0.4999 0.8661 77.0818 -117.327)" style="fill:#334455;" width="12.348" height="13.576"/>
	<rect x="157.268" y="184.76" style="fill:#334455;" width="12.347" height="13.576"/>
	<rect x="191.854" y="184.76" style="fill:#334455;" width="12.347" height="13.576"/>
	<rect x="226.504" y="184.76" style="fill:#334455;" width="12.347" height="13.576"/>
</g>
<g>
</g>
<g>
</g>
<g>
</g>
<g>
</g>
<g>
</g>
<g>
</g>
<g>
</g>
<g>
</g>
<g>
</g>
<g>
</g>
<g>
</g>
<g>
</g>
<g>
</g>
<g>
</g>
<g>
</g>
</svg>
